# 3ds Max Wavefront OBJ Exporter v0.97b - (c)2007 guruware
# File Created: 20.05.2021 14:19:48

mtllib LowPolyJarrónFinal.mtl

#
# object LowPoly
#

v  -1.0497 -0.7566 -13.6038
v  -0.0023 -0.7572 -0.0685
v  -12.6634 -0.8998 0.7054
v  -13.7108 -0.7009 -12.6291
v  -11.6161 -0.7007 14.5807
v  -9.2964 5.3117 24.9704
v  -23.0728 5.3117 9.5571
v  -24.2303 5.3117 -11.0832
v  -9.8972 5.3117 -23.8940
v  11.6113 -0.7000 -14.5785
v  9.2964 5.3117 -24.9704
v  23.0728 5.3117 -9.5571
v  12.6587 -0.7809 -0.9736
v  13.7060 -0.7015 12.6313
v  24.2303 5.3117 11.0832
v  9.8972 5.3117 23.8940
v  1.0450 -0.6389 13.6060
v  -28.9538 12.8680 11.9931
v  -30.4064 12.8680 -13.9084
v  -12.4200 12.8680 -29.9845
v  11.6659 12.8680 -31.3353
v  28.9538 12.8680 -11.9931
v  30.4064 12.8680 13.9084
v  12.4200 12.8680 29.9845
v  -11.6659 12.8680 31.3353
v  -31.1046 20.3556 12.8840
v  -32.6652 20.3556 -14.9429
v  -13.3430 20.3556 -32.2129
v  12.5316 20.3556 -33.6641
v  31.1046 20.3556 -12.8840
v  32.6652 20.3556 14.9429
v  13.3430 20.3556 32.2129
v  -12.5316 20.3556 33.6641
v  -31.1050 27.8149 12.8841
v  -32.6657 27.8149 -14.9431
v  -13.4404 27.8149 -31.3957
v  12.6230 27.8149 -32.8469
v  31.1050 27.8149 -12.8841
v  32.6657 27.8149 14.9431
v  13.3432 27.8149 32.2134
v  -12.5317 27.8149 33.6645
v  -12.0071 35.0607 32.2551
v  -29.8027 35.0607 12.3447
v  -31.2980 35.0607 -14.3175
v  -12.6873 36.9724 -28.4312
v  11.9300 36.9724 -29.8216
v  29.8027 35.0607 -12.3447
v  31.2980 35.0607 14.3175
v  12.7846 35.0607 30.8647
v  -0.4432 89.3946 -39.0691
v  -3.1764 89.3946 -38.1729
v  -3.1174 88.1977 -37.0848
v  -0.4986 88.1977 -37.9435
v  -9.0194 33.2208 -42.6210
v  7.0470 33.2208 -44.0721
v  -8.6725 40.4667 -41.2723
v  6.7212 40.4667 -42.6627
v  -7.0979 45.4911 -50.7904
v  3.2936 45.4911 -52.5914
v  -6.8736 48.9405 -47.0957
v  3.0829 48.9405 -48.8214
v  -5.6622 60.5184 -52.5468
v  1.7228 60.5184 -54.1348
v  -5.5028 60.9188 -47.4181
v  1.5730 60.9188 -48.9396
v  -4.6059 77.2399 -47.9355
v  0.1411 77.2399 -48.8317
v  -4.5034 77.4873 -45.0412
v  0.0448 77.4873 -45.8998
v  -10.4586 43.3275 28.0964
v  -25.9598 43.3275 10.7531
v  -27.2623 43.3275 -12.4714
v  -11.0512 43.3275 -26.8829
v  10.3922 43.3275 -28.0940
v  25.9605 43.3275 -10.7530
v  27.2630 43.3275 12.4716
v  11.1365 43.3275 26.8852
v  -8.3336 50.4305 22.3890
v  -20.6859 50.4305 8.5689
v  -21.7238 50.4305 -9.9379
v  -8.8057 50.4305 -21.4218
v  8.2816 50.4305 -22.3869
v  20.6874 50.4305 -8.5685
v  21.7253 50.4305 9.9382
v  8.8748 50.4305 21.4239
v  -8.3335 52.4301 22.3890
v  -20.6859 52.4301 8.5689
v  -21.7238 52.4301 -9.9379
v  -8.8057 52.4301 -21.4218
v  8.2816 52.4301 -22.3869
v  20.6874 52.4301 -8.5685
v  21.7253 52.4301 9.9382
v  8.8748 52.4301 21.4239
v  -9.2693 56.7456 24.9021
v  -23.0081 56.7456 9.5307
v  -24.1625 56.7456 -11.0534
v  -9.7945 56.7456 -23.8265
v  9.2109 56.7456 -24.8999
v  23.0093 56.7456 -9.5304
v  24.1637 56.7456 11.0537
v  9.8707 56.7456 23.8287
v  -10.0122 62.5025 28.1526
v  -24.8518 62.5025 10.2943
v  -26.0988 62.5025 -11.9391
v  -10.5795 62.5025 -25.7356
v  9.9488 62.5025 -26.8951
v  24.8527 62.5025 -10.2941
v  26.0996 62.5025 11.9393
v  10.6614 62.5025 26.9932
v  -10.6526 67.2037 28.3937
v  -26.4387 67.2037 10.7318
v  -27.7651 67.2037 -12.9194
v  -11.2561 67.2037 -27.5957
v  10.5813 67.2037 -28.8291
v  26.4356 67.2037 -11.1694
v  27.7621 67.2037 12.4818
v  11.3393 67.2037 27.1604
v  0.2712 67.2037 33.7597
v  -10.3877 70.2841 27.7861
v  -25.7824 70.2841 10.5621
v  -27.0759 70.2841 -12.5027
v  -10.9762 70.2841 -26.8151
v  10.3197 70.2841 -28.0180
v  25.7810 70.2841 -10.7961
v  27.0745 70.2841 12.2687
v  11.0589 70.2841 26.5833
v  0.2652 70.2841 32.9200
v  -10.1707 71.4978 27.2813
v  -25.2446 71.4978 10.4161
v  -26.5112 71.4978 -12.1682
v  -10.7469 71.4978 -26.1825
v  10.1053 71.4978 -27.3602
v  25.2445 71.4978 -10.4972
v  26.5111 71.4978 12.0872
v  10.8292 71.4978 26.1035
v  0.2604 71.4978 32.3082
v  -9.4677 70.2107 25.6462
v  -23.5028 70.2107 9.9433
v  -24.6822 70.2107 -11.0848
v  -10.0042 70.2107 -24.1333
v  9.4111 70.2107 -25.2299
v  23.5070 70.2107 -9.5289
v  24.6863 70.2107 11.4991
v  10.0850 70.2107 24.5496
v  0.2445 70.2107 30.3267
# 145 vertices

vn -0.0185 -0.9680 -0.2502
vn 0.0050 -1.0000 0.0039
vn -0.2477 -0.9687 0.0165
vn -0.2540 -0.6821 -0.6858
vn -0.7237 -0.6354 0.2693
vn -0.2378 -0.7435 0.6251
vn -0.5847 -0.7713 0.2515
vn -0.6235 -0.7467 -0.2316
vn -0.2479 -0.7789 -0.5760
vn 0.7236 -0.6364 -0.2672
vn 0.2378 -0.7435 -0.6250
vn 0.5837 -0.7723 -0.2505
vn 0.2482 -0.9685 -0.0182
vn 0.2509 -0.6873 0.6817
vn 0.6235 -0.7468 0.2316
vn 0.2469 -0.7809 0.5739
vn 0.0200 -0.9681 0.2497
vn -0.8187 -0.4633 0.3391
vn -0.8111 -0.4789 -0.3357
vn -0.3368 -0.4747 -0.8131
vn 0.3362 -0.4789 -0.8109
vn 0.8187 -0.4633 -0.3391
vn 0.8111 -0.4789 0.3357
vn 0.3368 -0.4747 0.8131
vn -0.3362 -0.4789 0.8109
vn -0.9140 -0.1457 0.3786
vn -0.9125 -0.1529 -0.3794
vn -0.3754 -0.1031 -0.9211
vn 0.3725 -0.1055 -0.9220
vn 0.9140 -0.1457 -0.3786
vn 0.9125 -0.1529 0.3794
vn 0.3783 -0.1504 0.9134
vn -0.3770 -0.1529 0.9135
vn -0.9198 0.0940 0.3810
vn -0.9149 0.0993 -0.3913
vn -0.5822 -0.0196 -0.8128
vn 0.5910 -0.0286 -0.8062
vn 0.9165 0.0940 -0.3889
vn 0.9190 0.0993 0.3816
vn 0.3809 0.0972 0.9195
vn -0.3800 0.0993 0.9197
vn -0.3609 0.3293 0.8725
vn -0.8769 0.3148 0.3632
vn -0.8630 0.3253 -0.3866
vn -0.5946 0.4748 -0.6488
vn 0.6173 0.4818 -0.6219
vn 0.8698 0.3110 -0.3831
vn 0.8722 0.3293 0.3617
vn 0.3620 0.3241 0.8740
vn 0.5438 0.8261 -0.1477
vn -0.5352 0.8365 0.1175
vn -0.4128 0.0469 0.9096
vn 0.6832 0.0504 0.7285
vn -0.6000 -0.5135 -0.6134
vn 0.5288 -0.5236 -0.6680
vn -0.7587 0.6286 0.1712
vn 0.7690 0.6389 0.0214
vn -0.7090 -0.1801 -0.6818
vn 0.5521 -0.1976 -0.8100
vn -0.7126 0.3329 0.6175
vn 0.8071 0.3577 0.4697
vn -0.7421 0.1056 -0.6619
vn 0.5828 0.1290 -0.8023
vn -0.6309 0.0108 0.7758
vn 0.7860 0.0360 0.6172
vn -0.7236 0.3614 -0.5880
vn 0.5929 0.4065 -0.6952
vn -0.7149 -0.2003 0.6700
vn 0.8060 -0.1811 0.5636
vn -0.3205 0.5514 0.7702
vn -0.7828 0.5311 0.3243
vn -0.7708 0.5514 -0.3191
vn -0.3224 0.4642 -0.8250
vn 0.3163 0.4734 -0.8221
vn 0.7825 0.5310 -0.3252
vn 0.7713 0.5513 0.3180
vn 0.3211 0.5439 0.7753
vn -0.3572 0.3826 0.8521
vn -0.8633 0.3562 0.3576
vn -0.8545 0.3827 -0.3511
vn -0.3554 0.3650 -0.8605
vn 0.3563 0.3822 -0.8526
vn 0.8628 0.3563 -0.3586
vn 0.8551 0.3826 0.3499
vn 0.3562 0.3654 0.8600
vn -0.3684 -0.2966 0.8811
vn -0.8881 -0.2756 0.3679
vn -0.8830 -0.2967 -0.3638
vn -0.3661 -0.2835 -0.8864
vn 0.3674 -0.2963 -0.8816
vn 0.8877 -0.2756 -0.3689
vn 0.8835 -0.2966 0.3625
vn 0.3669 -0.2838 0.8859
vn -0.3413 -0.5085 0.7905
vn -0.8427 -0.4098 0.3491
vn -0.8344 -0.4287 -0.3464
vn -0.3462 -0.4210 -0.8384
vn 0.3452 -0.4284 -0.8351
vn 0.8424 -0.4098 -0.3500
vn 0.8349 -0.4286 0.3453
vn 0.3393 -0.5007 0.7964
vn -0.4522 -0.3766 0.8085
vn -0.8775 -0.3281 0.3498
vn -0.8632 -0.3631 -0.3508
vn -0.3571 -0.3647 -0.8599
vn 0.3572 -0.3739 -0.8559
vn 0.8692 -0.3433 -0.3560
vn 0.8721 -0.3473 0.3446
vn 0.4537 -0.3665 0.8123
vn -0.6053 0.0408 0.7950
vn -0.9250 -0.0568 0.3758
vn -0.9173 -0.0618 -0.3933
vn -0.3783 -0.0635 -0.9235
vn 0.3750 -0.0636 -0.9248
vn 0.9192 -0.0599 -0.3891
vn 0.9245 -0.0587 0.3766
vn 0.5929 0.0436 0.8041
vn 0.0402 -0.2029 0.9784
vn -0.5719 0.3020 0.7627
vn -0.8789 0.3091 0.3633
vn -0.8639 0.3532 -0.3592
vn -0.3550 0.3663 -0.8601
vn 0.3543 0.3714 -0.8582
vn 0.8691 0.3373 -0.3617
vn 0.8738 0.3247 0.3619
vn 0.5618 0.2981 0.7717
vn 0.0384 0.3485 0.9365
vn -0.2220 0.9390 0.2625
vn -0.3605 0.9175 0.1679
vn -0.4085 0.9015 -0.1432
vn -0.1548 0.9200 -0.3601
vn 0.1753 0.9039 -0.3902
vn 0.3719 0.9179 -0.1381
vn 0.3960 0.9005 0.1794
vn 0.1831 0.9539 0.2379
vn 0.0245 0.8949 0.4455
vn 0.3741 0.8001 -0.4690
vn 0.5341 0.8107 -0.2397
vn 0.4944 0.8511 0.1764
vn 0.1993 0.8607 0.4684
vn -0.2038 0.8659 0.4568
vn -0.5109 0.8370 0.1960
vn -0.5109 0.8287 -0.2287
vn -0.3618 0.7957 -0.4858
vn -0.0295 0.8383 -0.5443
# 145 vertex normals

vt 0.4905 0.3739 0.0000
vt 0.4907 0.3511 0.0000
vt 0.5105 0.3508 0.0000
vt 0.5124 0.3724 0.0000
vt 0.5083 0.3309 0.0000
vt 0.5064 0.3139 0.0000
vt 0.5281 0.3353 0.0000
vt 0.5345 0.3708 0.0000
vt 0.5083 0.3980 0.0000
vt 0.4689 0.3712 0.0000
vt 0.4648 0.3958 0.0000
vt 0.4483 0.3589 0.0000
vt 0.4709 0.3495 0.0000
vt 0.4735 0.3300 0.0000
vt 0.4566 0.3271 0.0000
vt 0.4797 0.3132 0.0000
vt 0.4909 0.3308 0.0000
vt 0.5429 0.3275 0.0000
vt 0.5549 0.3767 0.0000
vt 0.5195 0.4242 0.0000
vt 0.4490 0.4182 0.0000
vt 0.4289 0.3598 0.0000
vt 0.4444 0.3170 0.0000
vt 0.4757 0.2989 0.0000
vt 0.5115 0.2997 0.0000
vt 0.5565 0.3194 0.0000
vt 0.5744 0.3807 0.0000
vt 0.5342 0.4551 0.0000
vt 0.4308 0.4408 0.0000
vt 0.4095 0.3595 0.0000
vt 0.4341 0.3078 0.0000
vt 0.4720 0.2857 0.0000
vt 0.5157 0.2872 0.0000
vt 0.5716 0.3094 0.0000
vt 0.5951 0.3825 0.0000
vt 0.5612 0.4938 0.0000
vt 0.3966 0.4771 0.0000
vt 0.3884 0.3557 0.0000
vt 0.4234 0.2976 0.0000
vt 0.4679 0.2708 0.0000
vt 0.5199 0.2737 0.0000
vt 0.5252 0.2565 0.0000
vt 0.5877 0.2966 0.0000
vt 0.6217 0.3832 0.0000
vt 0.6140 0.5346 0.0000
vt 0.3247 0.4865 0.0000
vt 0.3657 0.3481 0.0000
vt 0.4103 0.2847 0.0000
vt 0.4634 0.2539 0.0000
vt 0.4895 0.9861 0.0000
vt 0.5123 0.9868 0.0000
vt 0.5142 0.9995 0.0000
vt 0.4923 0.9988 0.0000
vt 0.5235 0.5651 0.0000
vt 0.4164 0.5602 0.0000
vt 0.5514 0.6044 0.0000
vt 0.1875 0.6177 0.0000
vt 0.3750 0.5970 0.0000
vt 0.2778 0.6679 0.0000
vt 0.5037 0.6602 0.0000
vt 0.4315 0.6650 0.0000
vt 0.5331 0.6781 0.0000
vt 0.4019 0.6865 0.0000
vt 0.3299 0.7197 0.0000
vt 0.4998 0.7614 0.0000
vt 0.4490 0.7650 0.0000
vt 0.5351 0.7679 0.0000
vt 0.4179 0.7779 0.0000
vt 0.3717 0.7968 0.0000
vt 0.5021 0.8731 0.0000
vt 0.4696 0.8741 0.0000
vt 0.5191 0.8835 0.0000
vt 0.4557 0.8889 0.0000
vt 0.4246 0.9021 0.0000
vt 0.5241 0.9839 0.0000
vt 0.4779 0.9866 0.0000
vt 0.4595 0.9954 0.0000
vt 0.5334 0.2267 0.0000
vt 0.6125 0.2739 0.0000
vt 0.6637 0.3732 0.0000
vt 0.6819 0.5337 0.0000
vt 0.2789 0.4621 0.0000
vt 0.3330 0.3323 0.0000
vt 0.3899 0.2624 0.0000
vt 0.4563 0.2261 0.0000
vt 0.1616 0.5708 0.0000
vt 0.5446 0.1806 0.0000
vt 0.6437 0.2411 0.0000
vt 0.7218 0.3502 0.0000
vt 0.7662 0.4886 0.0000
vt 0.2197 0.4174 0.0000
vt 0.2956 0.3076 0.0000
vt 0.3621 0.2292 0.0000
vt 0.4460 0.1871 0.0000
vt 0.1277 0.5108 0.0000
vt 0.5466 0.1685 0.0000
vt 0.6520 0.2316 0.0000
vt 0.7346 0.3426 0.0000
vt 0.7838 0.4839 0.0000
vt 0.2082 0.4079 0.0000
vt 0.2862 0.3005 0.0000
vt 0.3553 0.2208 0.0000
vt 0.4424 0.1763 0.0000
vt 0.1180 0.5013 0.0000
vt 0.5518 0.1366 0.0000
vt 0.6732 0.2071 0.0000
vt 0.7683 0.3233 0.0000
vt 0.8307 0.4755 0.0000
vt 0.1797 0.3843 0.0000
vt 0.2638 0.2829 0.0000
vt 0.3387 0.1991 0.0000
vt 0.4337 0.1482 0.0000
vt 0.0889 0.4817 0.0000
vt 0.5550 0.0927 0.0000
vt 0.7015 0.1735 0.0000
vt 0.8067 0.2988 0.0000
vt 0.8897 0.4556 0.0000
vt 0.1503 0.3581 0.0000
vt 0.2365 0.2597 0.0000
vt 0.3190 0.1736 0.0000
vt 0.4237 0.1079 0.0000
vt 0.0531 0.4532 0.0000
vt 0.5666 0.0587 0.0000
vt 0.7260 0.1458 0.0000
vt 0.8390 0.2789 0.0000
vt 0.9380 0.4339 0.0000
vt 0.1275 0.3374 0.0000
vt 0.2144 0.2411 0.0000
vt 0.3013 0.1540 0.0000
vt 0.4075 0.0794 0.0000
vt 0.4852 0.0555 0.0000
vt 0.0258 0.4296 0.0000
vt 0.5735 0.0342 0.0000
vt 0.7413 0.1258 0.0000
vt 0.8582 0.2633 0.0000
vt 0.9624 0.4137 0.0000
vt 0.1145 0.3240 0.0000
vt 0.2015 0.2281 0.0000
vt 0.2902 0.1403 0.0000
vt 0.3969 0.0601 0.0000
vt 0.4802 0.0332 0.0000
vt 0.0127 0.4117 0.0000
vt 0.5774 0.0227 0.0000
vt 0.7480 0.1168 0.0000
vt 0.8664 0.2560 0.0000
vt 0.9714 0.4047 0.0000
vt 0.1090 0.3180 0.0000
vt 0.1961 0.2225 0.0000
vt 0.2852 0.1342 0.0000
vt 0.3914 0.0519 0.0000
vt 0.4766 0.0218 0.0000
vt 0.0077 0.4037 0.0000
vt 0.5863 0.0046 0.0000
vt 0.7582 0.1008 0.0000
vt 0.8804 0.2416 0.0000
vt 0.9855 0.3851 0.0000
vt 0.0993 0.3062 0.0000
vt 0.1872 0.2120 0.0000
vt 0.2770 0.1235 0.0000
vt 0.3815 0.0395 0.0000
vt 0.4703 0.0005 0.0000
vt 0.0005 0.3885 0.0000
# 162 texture coords

o LowPoly
g LowPoly
usemtl wire_177027088
s 1
f 1/1/1 2/2/2 3/3/3 4/4/4 
f 5/5/5 6/6/6 7/7/7 3/3/3 
f 4/4/4 8/8/8 9/9/9 1/1/1 
f 10/10/10 11/11/11 12/12/12 13/13/13 
f 14/14/14 15/15/15 16/16/16 17/17/17 
f 8/8/8 7/7/7 18/18/18 19/19/19 
f 11/11/11 9/9/9 20/20/20 21/21/21 
f 15/15/15 12/12/12 22/22/22 23/23/23 
f 6/6/6 16/16/16 24/24/24 25/25/25 
f 19/19/19 18/18/18 26/26/26 27/27/27 
f 21/21/21 20/20/20 28/28/28 29/29/29 
f 23/23/23 22/22/22 30/30/30 31/31/31 
f 25/25/25 24/24/24 32/32/32 33/33/33 
f 27/27/27 26/26/26 34/34/34 35/35/35 
f 29/29/29 28/28/28 36/36/36 37/37/37 
f 31/31/31 30/30/30 38/38/38 39/39/39 
f 33/33/33 32/32/32 40/40/40 41/41/41 
f 7/7/7 8/8/8 4/4/4 3/3/3 
f 9/9/9 11/11/11 10/10/10 1/1/1 
f 12/12/12 15/15/15 14/14/14 13/13/13 
f 16/16/16 6/6/6 5/5/5 17/17/17 
f 7/7/7 6/6/6 25/25/25 18/18/18 
f 9/9/9 8/8/8 19/19/19 20/20/20 
f 12/12/12 11/11/11 21/21/21 22/22/22 
f 16/16/16 15/15/15 23/23/23 24/24/24 
f 18/18/18 25/25/25 33/33/33 26/26/26 
f 20/20/20 19/19/19 27/27/27 28/28/28 
f 22/22/22 21/21/21 29/29/29 30/30/30 
f 24/24/24 23/23/23 31/31/31 32/32/32 
f 26/26/26 33/33/33 41/41/41 34/34/34 
f 28/28/28 27/27/27 35/35/35 36/36/36 
f 30/30/30 29/29/29 37/37/37 38/38/38 
f 32/32/32 31/31/31 39/39/39 40/40/40 
f 3/3/3 2/2/2 17/17/17 5/5/5 
f 34/34/34 41/41/41 42/42/42 43/43/43 
f 36/36/36 35/35/35 44/44/44 45/45/45 
f 38/38/38 37/37/37 46/46/46 47/47/47 
f 40/40/40 39/39/39 48/48/48 49/49/49 
f 35/35/35 34/34/34 43/43/43 44/44/44 
s 4
f 50/50/50 51/51/51 52/52/52 53/53/53 
s 1
f 39/39/39 38/38/38 47/47/47 48/48/48 
f 41/41/41 40/40/40 49/49/49 42/42/42 
s 2
f 37/37/37 36/36/36 54/54/54 55/55/55 
s 4
f 36/36/36 45/45/45 56/56/56 54/54/54 
s 2
f 45/57/45 46/46/46 57/58/57 56/59/56 
s 4
f 46/46/46 37/37/37 55/55/55 57/58/57 
s 2
f 55/55/55 54/54/54 58/60/58 59/61/59 
s 4
f 54/54/54 56/56/56 60/62/60 58/60/58 
s 2
f 56/59/56 57/58/57 61/63/61 60/64/60 
s 4
f 57/58/57 55/55/55 59/61/59 61/63/61 
s 2
f 59/61/59 58/60/58 62/65/62 63/66/63 
s 4
f 58/60/58 60/62/60 64/67/64 62/65/62 
s 2
f 60/64/60 61/63/61 65/68/65 64/69/64 
s 4
f 61/63/61 59/61/59 63/66/63 65/68/65 
s 2
f 63/66/63 62/65/62 66/70/66 67/71/67 
s 4
f 62/65/62 64/67/64 68/72/68 66/70/66 
s 2
f 64/69/64 65/68/65 69/73/69 68/74/68 
s 4
f 65/68/65 63/66/63 67/71/67 69/73/69 
s 2
f 67/71/67 66/70/66 51/51/51 50/50/50 
s 4
f 66/70/66 68/72/68 52/75/52 51/51/51 
s 2
f 68/74/68 69/73/69 53/76/53 52/77/52 
s 4
f 69/73/69 67/71/67 50/50/50 53/76/53 
s 1
f 43/43/43 42/42/42 70/78/70 71/79/71 
f 45/45/45 44/44/44 72/80/72 73/81/73 
f 47/47/47 46/46/46 74/82/74 75/83/75 
f 49/49/49 48/48/48 76/84/76 77/85/77 
f 44/44/44 43/43/43 71/79/71 72/80/72 
f 48/48/48 47/47/47 75/83/75 76/84/76 
f 42/42/42 49/49/49 77/85/77 70/78/70 
f 46/46/46 45/57/45 73/86/73 74/82/74 
f 71/79/71 70/78/70 78/87/78 79/88/79 
f 73/81/73 72/80/72 80/89/80 81/90/81 
f 75/83/75 74/82/74 82/91/82 83/92/83 
f 77/85/77 76/84/76 84/93/84 85/94/85 
f 72/80/72 71/79/71 79/88/79 80/89/80 
f 76/84/76 75/83/75 83/92/83 84/93/84 
f 70/78/70 77/85/77 85/94/85 78/87/78 
f 74/82/74 73/86/73 81/95/81 82/91/82 
f 79/88/79 78/87/78 86/96/86 87/97/87 
f 81/90/81 80/89/80 88/98/88 89/99/89 
f 83/92/83 82/91/82 90/100/90 91/101/91 
f 85/94/85 84/93/84 92/102/92 93/103/93 
f 80/89/80 79/88/79 87/97/87 88/98/88 
f 84/93/84 83/92/83 91/101/91 92/102/92 
f 78/87/78 85/94/85 93/103/93 86/96/86 
f 82/91/82 81/95/81 89/104/89 90/100/90 
f 87/97/87 86/96/86 94/105/94 95/106/95 
f 89/99/89 88/98/88 96/107/96 97/108/97 
f 91/101/91 90/100/90 98/109/98 99/110/99 
f 93/103/93 92/102/92 100/111/100 101/112/101 
f 88/98/88 87/97/87 95/106/95 96/107/96 
f 92/102/92 91/101/91 99/110/99 100/111/100 
f 86/96/86 93/103/93 101/112/101 94/105/94 
f 90/100/90 89/104/89 97/113/97 98/109/98 
f 95/106/95 94/105/94 102/114/102 103/115/103 
f 97/108/97 96/107/96 104/116/104 105/117/105 
f 99/110/99 98/109/98 106/118/106 107/119/107 
f 101/112/101 100/111/100 108/120/108 109/121/109 
f 96/107/96 95/106/95 103/115/103 104/116/104 
f 100/111/100 99/110/99 107/119/107 108/120/108 
f 94/105/94 101/112/101 109/121/109 102/114/102 
f 98/109/98 97/113/97 105/122/105 106/118/106 
f 103/115/103 102/114/102 110/123/110 111/124/111 
f 105/117/105 104/116/104 112/125/112 113/126/113 
f 107/119/107 106/118/106 114/127/114 115/128/115 
f 109/121/109 108/120/108 116/129/116 117/130/117 
f 104/116/104 103/115/103 111/124/111 112/125/112 
f 108/120/108 107/119/107 115/128/115 116/129/116 
f 109/121/109 117/130/117 118/131/118 
f 106/118/106 105/122/105 113/132/113 114/127/114 
f 118/131/118 110/123/110 102/114/102 
f 118/131/118 102/114/102 109/121/109 
s off
f 111/124/111 110/123/110 119/133/119 120/134/120 
f 113/126/113 112/125/112 121/135/121 122/136/122 
f 115/128/115 114/127/114 123/137/123 124/138/124 
f 117/130/117 116/129/116 125/139/125 126/140/126 
f 112/125/112 111/124/111 120/134/120 121/135/121 
f 116/129/116 115/128/115 124/138/124 125/139/125 
f 118/131/118 117/130/117 126/140/126 127/141/127 
f 114/127/114 113/132/113 122/142/122 123/137/123 
f 110/123/110 118/131/118 127/141/127 119/133/119 
f 120/134/120 119/133/119 128/143/128 129/144/129 
f 122/136/122 121/135/121 130/145/130 131/146/131 
f 124/138/124 123/137/123 132/147/132 133/148/133 
f 126/140/126 125/139/125 134/149/134 135/150/135 
f 121/135/121 120/134/120 129/144/129 130/145/130 
f 125/139/125 124/138/124 133/148/133 134/149/134 
f 127/141/127 126/140/126 135/150/135 136/151/136 
f 123/137/123 122/142/122 131/152/131 132/147/132 
f 119/133/119 127/141/127 136/151/136 128/143/128 
f 129/144/129 128/143/128 137/153/137 138/154/138 
f 131/146/131 130/145/130 139/155/139 140/156/140 
f 133/148/133 132/147/132 141/157/141 142/158/142 
f 135/150/135 134/149/134 143/159/143 144/160/144 
f 130/145/130 129/144/129 138/154/138 139/155/139 
f 134/149/134 133/148/133 142/158/142 143/159/143 
f 136/151/136 135/150/135 144/160/144 145/161/145 
f 132/147/132 131/152/131 140/162/140 141/157/141 
f 128/143/128 136/151/136 145/161/145 137/153/137 
s 1
f 2/2/2 1/1/1 10/10/10 13/13/13 
f 2/2/2 13/13/13 14/14/14 17/17/17 
# 138 polygons - 3 triangles

