# File produced by Open Asset Import Library (http://www.assimp.sf.net)
# (assimp v3.1.128981410)

mtllib ladder.mtl

# vertex positions
v -30.550398 0.000000 -13.870800
v -30.550398 -0.630599 -60.850300
v 37.542801 -0.300500 -61.026001
v 37.542801 0.000000 -13.870800
v 37.542801 8.797600 -13.870800
v -30.550398 8.797600 -13.870800
v 37.542801 8.671300 -24.345800
v -30.550398 8.794700 -24.034599
v 37.542801 17.142000 -24.044098
v -30.550398 17.142000 -24.044098
v 37.542801 16.975800 -33.860600
v -30.550398 17.120501 -33.662796
v 37.542801 25.024500 -33.726898
v -30.550398 25.024500 -33.726898
v 37.542801 25.024500 -42.369198
v -30.550398 24.964499 -42.253796
v 37.542801 33.136902 -42.369198
v -30.550398 33.136902 -42.369198
v 37.542801 32.991196 -51.999798
v -30.550398 33.109501 -51.705002
v 37.542801 41.458397 -51.764095
v -30.550398 41.458397 -51.764095
v 37.542801 41.458397 -61.026001
v -30.550398 41.458397 -61.026001
v 37.542801 32.854595 -61.026001
v -30.550398 32.854595 -61.026001
v 37.542801 24.920298 -61.026001
v -30.550398 24.808800 -61.026001
v 37.542801 16.510597 -61.026001
v -30.550398 16.516100 -61.026001
v 37.542801 7.677801 -61.026001
v -30.550398 8.372400 -61.026001

# UV coordinates
vt 0.514500 0.794700
vt 0.312900 0.794700
vt 0.312100 0.502500
vt 0.514500 0.502500
vt 0.552200 0.502500
vt 0.552200 0.794700
vt 0.597200 0.502500
vt 0.595800 0.794700
vt 0.633500 0.502800
vt 0.631600 0.794900
vt 0.675700 0.503000
vt 0.672900 0.795200
vt 0.710200 0.503400
vt 0.706800 0.795600
vt 0.747300 0.503900
vt 0.743400 0.796000
vt 0.782100 0.504300
vt 0.778500 0.796500
vt 0.823400 0.504800
vt 0.818500 0.797000
vt 0.859800 0.505500
vt 0.854400 0.797600
vt 0.367700 0.027300
vt 0.358000 0.319300
vt 0.318300 0.318000
vt 0.328000 0.026000
vt 0.132300 0.797700
vt 0.127500 0.505600
vt 0.164400 0.505000
vt 0.169200 0.797100
vt 0.202900 0.504300
vt 0.207800 0.796500
vt 0.234500 0.503800
vt 0.239300 0.795900
vt 0.282000 0.503000
vt 0.286800 0.795100
vt 0.317000 0.354900
vt 0.355700 0.355600
vt 0.315700 0.393400
vt 0.397100 0.356400
vt 0.395900 0.391100
vt 0.314700 0.424900
vt 0.433000 0.392400
vt 0.431200 0.426900
vt 0.313100 0.472400
vt 0.473300 0.427600
vt 0.470800 0.463800
vt 0.515800 0.464800
vt 0.314500 0.975300
vt 0.314000 0.938400
vt 0.354100 0.938900
vt 0.354300 0.974800
vt 0.313500 0.899800
vt 0.394100 0.903500
vt 0.394100 0.938500
vt 0.313100 0.868300
vt 0.430500 0.869300
vt 0.430700 0.903200
vt 0.312500 0.820800
vt 0.471400 0.833000
vt 0.471800 0.868800
vt 0.515000 0.832500

# vertex normals
vn -0.578075 -0.573075 0.580874
vn -0.577015 -0.588315 -0.566515
vn 0.577583 -0.577684 -0.576783
vn 0.577681 -0.575282 0.579081
vn 0.576710 0.581110 0.574210
vn -0.577384 0.577384 0.577284
vn 0.910706 0.288402 0.295702
vn -0.903732 0.303211 0.302211
vn 0.574597 0.573297 0.584097
vn -0.577283 0.578383 0.576383
vn 0.908957 0.294786 0.294786
vn -0.903301 0.305000 0.301700
vn 0.576470 0.572970 0.582570
vn -0.577505 0.581706 0.572805
vn 0.904634 0.301111 0.301611
vn -0.903621 0.306307 0.299407
vn 0.576573 0.582072 0.573373
vn -0.578002 0.582002 0.572002
vn 0.910158 0.290819 0.295019
vn -0.903401 0.305000 0.301400
vn 0.575879 0.569979 0.586078
vn -0.577715 0.579215 0.575114
vn 0.577350 0.577350 -0.577350
vn -0.577350 0.577350 -0.577350
vn 0.707107 0.000000 -0.707107
vn -0.707107 0.000000 -0.707107
vn -0.704987 -0.006900 -0.709187

# Mesh
g Plane001
usemtl wire_088144225
f 4/4/4 1/1/1 2/2/2
f 2/2/2 3/3/3 4/4/4
f 6/6/6 1/1/1 4/4/4
f 4/4/4 5/5/5 6/6/6
f 5/5/5 7/7/7 8/8/8
f 8/8/8 6/6/6 5/5/5
f 10/10/10 8/8/8 7/7/7
f 7/7/7 9/9/9 10/10/10
f 12/12/12 10/10/10 9/9/9
f 9/9/9 11/11/11 12/12/12
f 14/14/14 12/12/12 11/11/11
f 11/11/11 13/13/13 14/14/14
f 16/16/16 14/14/14 13/13/13
f 13/13/13 15/15/15 16/16/16
f 18/18/18 16/16/16 15/15/15
f 15/15/15 17/17/17 18/18/18
f 20/20/20 18/18/18 17/17/17
f 17/17/17 19/19/19 20/20/20
f 22/22/22 20/20/20 19/19/19
f 19/19/19 21/21/21 22/22/22
f 24/26/24 22/23/22 21/24/21
f 21/24/21 23/25/23 24/26/24
f 26/30/26 24/27/24 23/28/23
f 23/28/23 25/29/25 26/30/26
f 28/32/26 26/30/26 25/29/25
f 25/29/25 27/31/25 28/32/26
f 30/34/26 28/32/26 27/31/25
f 27/31/25 29/33/25 30/34/26
f 32/36/27 30/34/26 29/33/25
f 29/33/25 31/35/25 32/36/27
f 2/2/2 32/36/27 31/35/25
f 31/35/25 3/3/3 2/2/2
f 19/38/19 25/37/25 23/25/23
f 23/25/23 21/24/21 19/38/19
f 15/41/15 27/39/25 25/37/25
f 15/41/15 25/37/25 19/38/19
f 19/38/19 17/40/17 15/41/15
f 11/44/11 29/42/25 27/39/25
f 11/44/11 27/39/25 15/41/15
f 15/41/15 13/43/13 11/44/11
f 7/47/7 31/45/25 29/42/25
f 7/47/7 29/42/25 11/44/11
f 11/44/11 9/46/9 7/47/7
f 4/4/4 3/3/3 31/45/25
f 4/4/4 31/45/25 7/47/7
f 7/47/7 5/48/5 4/4/4
f 22/52/22 24/49/24 26/50/26
f 26/50/26 20/51/20 22/52/22
f 20/51/20 26/50/26 28/53/26
f 20/51/20 28/53/26 16/54/16
f 16/54/16 18/55/18 20/51/20
f 16/54/16 28/53/26 30/56/26
f 16/54/16 30/56/26 12/57/12
f 12/57/12 14/58/14 16/54/16
f 12/57/12 30/56/26 32/59/27
f 12/57/12 32/59/27 8/60/8
f 8/60/8 10/61/10 12/57/12
f 8/60/8 32/59/27 2/2/2
f 8/60/8 2/2/2 1/1/1
f 1/1/1 6/62/6 8/60/8
