# 3ds Max Wavefront OBJ Exporter v0.97b - (c)2007 guruware
# File Created: 27.05.2021 02:09:14

mtllib pagoda.mtl

#
# object pagode
#

v  -0.0000 949.2825 125.3778
v  215.3228 949.2826 0.0000
v  -0.0000 949.2825 -125.3778
v  -215.3228 949.2826 0.0000
v  1055.7681 30.7596 614.7173
v  1055.7959 46.6940 614.8010
v  -0.0000 13.6928 614.8010
v  -0.0000 2.5714 614.7173
v  1055.7681 30.7596 -614.7010
v  1055.7959 46.6940 -614.8173
v  1055.7959 22.2627 0.0000
v  1055.7681 6.3283 0.0000
v  -1055.7651 30.7596 -614.7010
v  -1055.7988 46.6940 -614.8173
v  -0.0000 13.5695 -614.8173
v  -0.0000 2.7938 -614.7010
v  -1055.7651 30.7596 614.7173
v  -1055.7988 46.6940 614.8010
v  -1055.7988 22.2627 0.0000
v  -1055.7651 6.3283 0.0000
v  650.2654 465.2188 378.6356
v  534.3093 561.1635 311.1168
v  -0.0000 505.1631 311.1168
v  -0.0000 392.8200 378.6356
v  1146.9559 82.5610 667.7849
v  1147.0035 98.4954 667.9384
v  -0.0000 24.6280 667.9384
v  -0.0000 13.4414 667.7849
v  -962.3604 10.2113 561.3060
v  -0.0000 2.5882 561.9086
v  650.2654 465.2188 -378.6356
v  534.3093 561.1635 -311.1168
v  534.3093 515.8228 0.0000
v  650.2654 406.6011 0.0000
v  1146.9559 82.5610 -667.8047
v  1147.0035 98.4954 -667.9186
v  1147.0035 39.1719 0.0000
v  1146.9559 23.2375 0.0000
v  962.3483 10.2113 562.4443
v  962.3451 5.1691 0.0000
v  -650.2654 465.2188 -378.6356
v  -534.3093 561.1635 -311.1168
v  -0.0000 505.1632 -311.1168
v  -0.0000 392.8200 -378.6355
v  -1146.9559 82.5610 -667.8047
v  -1147.0035 98.4954 -667.9186
v  -0.0000 24.6579 -667.9186
v  -0.0000 13.4414 -667.8047
v  962.3487 10.2816 -562.4443
v  -0.0000 1.3118 -563.9999
v  -650.2654 465.2189 378.6356
v  -534.3093 561.1635 311.1168
v  -534.3093 515.8228 0.0000
v  -650.2654 406.6011 0.0000
v  -1146.9559 82.5610 667.7849
v  -1147.0035 98.4954 667.9384
v  -1147.0035 39.1719 -0.0000
v  -1146.9559 23.2375 0.0000
v  -962.3671 10.2816 -563.5826
v  -962.3146 5.1691 0.0000
v  1254.3131 163.2994 730.4149
v  -0.0000 24.5922 730.4149
v  -225.4958 787.6466 131.3014
v  -0.0000 787.6466 131.3014
v  -0.0000 2.5955 547.6102
v  -941.5034 8.4169 547.4565
v  1254.3131 163.2994 -730.3585
v  1254.3131 46.4357 0.0000
v  225.4958 787.6466 131.3014
v  225.4958 787.6466 0.0000
v  941.5399 8.2202 0.0000
v  941.5059 8.4169 547.4565
v  -1254.3152 163.2994 -730.3585
v  -0.0000 24.5922 -730.3585
v  225.4958 787.6466 -131.3014
v  -0.0000 787.6466 -131.3014
v  -0.0000 -7.8421 -551.0784
v  941.5043 10.0561 -550.6663
v  -1254.3152 163.2994 730.4149
v  -1254.3152 46.4357 -0.0000
v  -225.4958 787.6466 -131.3014
v  -225.4958 787.6466 0.0000
v  -941.5458 8.2202 0.0000
v  -941.5014 10.0561 -550.6663
v  -215.3228 949.2825 -125.3778
v  215.3228 949.2825 -125.3778
v  215.3228 949.2825 125.3778
v  -215.3228 949.2825 125.3778
v  -438.5146 658.1334 255.3376
v  -0.0000 616.2650 255.3376
v  438.5146 658.1334 255.3376
v  438.5146 624.2348 0.0000
v  438.5146 658.1335 -255.3376
v  -0.0000 616.2651 -255.3376
v  -438.5146 658.1335 -255.3376
v  -438.5146 624.2348 0.0000
v  -0.0000 38.0751 730.2888
v  -1254.2844 192.0212 730.2888
v  1254.2865 67.3786 0.0000
v  1254.2865 192.0212 730.2888
v  -0.0000 38.0751 -730.3451
v  1254.2865 192.0212 -730.3451
v  -1254.2844 67.3786 0.0000
v  -1254.2844 192.0212 -730.3451
v  282.2810 853.0402 164.3662
v  -0.0000 837.2996 164.3662
v  353.1473 755.5041 205.6301
v  -0.0000 726.8827 205.6301
v  -0.0000 162.7589 558.6728
v  959.4597 277.7701 558.6728
v  -0.0000 279.1748 457.0322
v  784.9028 370.3500 457.0321
v  282.2810 853.0403 -164.3662
v  282.2811 840.2959 0.0000
v  353.1473 755.5042 -205.6301
v  353.1473 732.3308 0.0000
v  959.4597 184.6512 0.0000
v  959.4597 277.7701 -558.6728
v  784.9028 296.5298 0.0000
v  784.9028 370.3499 -457.0320
v  -282.2810 853.0403 -164.3662
v  -0.0000 837.2996 -164.3662
v  -353.1473 755.5042 -205.6301
v  -0.0000 726.8828 -205.6301
v  -0.0000 162.7589 -558.6728
v  -959.4597 277.7701 -558.6728
v  -0.0000 279.1747 -457.0320
v  -784.9028 370.3499 -457.0320
v  -282.2811 853.0402 164.3662
v  -282.2811 840.2959 0.0000
v  -353.1473 755.5041 205.6301
v  -353.1473 732.3308 0.0000
v  -959.4597 184.6512 0.0000
v  -959.4597 277.7701 558.6728
v  -784.9028 296.5298 0.0000
v  -784.9028 370.3501 457.0320
v  -0.0000 787.6466 0.0000
# 137 vertices

vn 0.0000 0.7622 0.6474
vn 0.6009 0.7993 -0.0000
vn 0.0000 0.7622 -0.6474
vn -0.6009 0.7993 -0.0000
vn 0.6381 -0.4460 0.6276
vn 0.5185 -0.5573 0.6485
vn 0.0000 -0.6965 0.7176
vn -0.0000 -0.7208 0.6932
vn 0.6379 -0.4467 -0.6273
vn 0.5184 -0.5576 -0.6484
vn 0.7340 -0.6792 0.0000
vn 0.6979 -0.7162 -0.0000
vn -0.6385 -0.4460 -0.6273
vn -0.5184 -0.5576 -0.6483
vn 0.0000 -0.6953 -0.7188
vn 0.0000 -0.6992 -0.7149
vn -0.6374 -0.4468 0.6277
vn -0.5185 -0.5573 0.6485
vn -0.7339 -0.6792 0.0000
vn -0.6978 -0.7163 -0.0000
vn 0.5779 0.5704 0.5836
vn 0.6106 0.5018 0.6127
vn 0.0000 0.2540 0.9672
vn 0.0000 0.2932 0.9560
vn 0.6662 -0.3516 0.6577
vn 0.5705 -0.4408 0.6930
vn 0.0000 -0.6768 0.7362
vn 0.0000 -0.7390 0.6737
vn -0.1840 -0.9349 0.3036
vn 0.0000 -1.0000 -0.0009
vn 0.5779 0.5704 -0.5836
vn 0.6106 0.5018 -0.6127
vn 0.9069 0.4213 0.0000
vn 0.8784 0.4778 -0.0000
vn 0.6661 -0.3512 -0.6580
vn 0.5706 -0.4404 -0.6931
vn 0.7951 -0.6065 -0.0000
vn 0.6755 -0.7373 0.0000
vn 0.1824 -0.9336 0.3085
vn -0.1371 -0.9906 -0.0001
vn -0.5779 0.5704 -0.5836
vn -0.6106 0.5018 -0.6127
vn 0.0000 0.2540 -0.9672
vn 0.0000 0.2932 -0.9560
vn -0.6661 -0.3512 -0.6580
vn -0.5706 -0.4404 -0.6931
vn 0.0000 -0.6766 -0.7364
vn 0.0000 -0.7368 -0.6761
vn 0.1594 -0.9453 -0.2846
vn 0.0003 -0.8650 -0.5018
vn -0.5779 0.5704 0.5836
vn -0.6106 0.5018 0.6127
vn -0.9069 0.4213 0.0000
vn -0.8784 0.4778 -0.0000
vn -0.6662 -0.3516 0.6577
vn -0.5705 -0.4408 0.6930
vn -0.7951 -0.6065 -0.0000
vn -0.6755 -0.7373 0.0000
vn -0.1588 -0.9438 -0.2900
vn 0.1374 -0.9905 -0.0001
vn 0.6850 -0.2561 0.6820
vn 0.0000 -0.7512 0.6601
vn 0.4408 -0.7386 -0.5100
vn 0.0000 -0.7881 -0.6155
vn -0.0000 -0.7898 -0.6134
vn 0.1482 -0.9844 -0.0948
vn 0.6852 -0.2568 -0.6816
vn 0.6940 -0.7200 -0.0000
vn -0.4408 -0.7386 -0.5100
vn -0.5491 -0.8358 -0.0000
vn -0.6680 -0.7441 -0.0023
vn -0.1466 -0.9837 -0.1042
vn -0.6853 -0.2568 -0.6815
vn -0.0000 -0.7527 -0.6584
vn -0.4406 -0.7394 0.5091
vn 0.0000 -0.7877 0.6161
vn -0.0000 -0.9860 0.1666
vn -0.1871 -0.9587 0.2144
vn -0.6850 -0.2561 0.6820
vn -0.6940 -0.7199 -0.0000
vn 0.4406 -0.7394 0.5091
vn 0.5491 -0.8358 -0.0000
vn 0.6682 -0.7440 -0.0023
vn 0.1874 -0.9589 0.2130
vn -0.4747 0.7044 -0.5277
vn 0.4747 0.7044 -0.5277
vn 0.4747 0.7044 0.5277
vn -0.4747 0.7044 0.5277
vn -0.6355 0.4416 0.6334
vn 0.0000 0.2199 0.9755
vn 0.6355 0.4416 0.6334
vn 0.9293 0.3692 0.0000
vn 0.6355 0.4416 -0.6334
vn 0.0000 0.2199 -0.9755
vn -0.6355 0.4416 -0.6334
vn -0.9293 0.3692 0.0000
vn 0.0000 0.2427 0.9701
vn -0.6448 0.4984 0.5795
vn 0.9407 0.3392 -0.0000
vn 0.6448 0.4983 0.5795
vn 0.0000 0.2405 -0.9706
vn 0.6448 0.4979 -0.5799
vn -0.9407 0.3392 -0.0000
vn -0.6448 0.4979 -0.5799
vn 0.6602 0.3509 0.6640
vn 0.0000 0.1679 0.9858
vn 0.6505 0.3896 0.6519
vn 0.0000 0.1919 0.9814
vn 0.0000 0.4753 0.8798
vn 0.3852 0.8127 0.4371
vn -0.0000 0.3499 0.9368
vn 0.5223 0.6584 0.5420
vn 0.6602 0.3509 -0.6640
vn 0.9578 0.2874 0.0000
vn 0.6505 0.3896 -0.6519
vn 0.9455 0.3258 0.0000
vn 0.7183 0.6957 -0.0000
vn 0.3852 0.8128 -0.4370
vn 0.8323 0.5544 -0.0000
vn 0.5223 0.6584 -0.5420
vn -0.6602 0.3509 -0.6640
vn 0.0000 0.1679 -0.9858
vn -0.6505 0.3896 -0.6519
vn 0.0000 0.1919 -0.9814
vn 0.0000 0.4754 -0.8798
vn -0.3852 0.8128 -0.4370
vn 0.0000 0.3499 -0.9368
vn -0.5223 0.6584 -0.5420
vn -0.6602 0.3509 0.6640
vn -0.9578 0.2874 0.0000
vn -0.6505 0.3896 0.6519
vn -0.9455 0.3258 0.0000
vn -0.7183 0.6957 -0.0000
vn -0.3852 0.8127 0.4371
vn -0.8323 0.5544 -0.0000
vn -0.5223 0.6584 0.5420
vn 0.0000 -1.0000 -0.0000
# 137 vertex normals

vt 0.8838 0.2905 1016.5113
vt 0.9076 0.3146 1016.5117
vt 0.8750 0.3237 1016.5113
vt 0.8511 0.2994 1016.5117
vt 0.1996 0.4580 -934.5179
vt 0.1991 0.4526 -900.6717
vt 0.3410 0.4698 -970.7694
vt 0.3378 0.4769 -994.3923
vt 0.0506 0.5279 -934.5179
vt 0.0467 0.5249 -900.6717
vt 0.1223 0.4889 -952.5660
vt 0.1264 0.4929 -986.4123
vt 0.5729 0.6276 -934.5179
vt 0.5828 0.6235 -900.6717
vt 0.5733 0.7669 -971.0313
vt 0.5668 0.7678 -993.9198
vt 0.4752 0.5000 -934.5179
vt 0.4818 0.4903 -900.6717
vt 0.5372 0.5527 -952.5660
vt 0.5277 0.5608 -986.4123
vt 0.7033 0.1819 -11.6855
vt 0.7320 0.2004 192.1098
vt 0.7083 0.2721 73.1599
vt 0.6738 0.2695 -165.4674
vt 0.1941 0.4368 -824.4866
vt 0.1939 0.4310 -790.6406
vt 0.3486 0.4543 -947.5419
vt 0.3448 0.4604 -971.3032
vt 0.4613 0.5159 -978.1644
vt 0.3343 0.4879 -994.3565
vt 0.7878 0.1183 -11.6855
vt 0.7970 0.1440 192.1099
vt 0.7565 0.1624 95.8019
vt 0.7365 0.1372 -136.1951
vt 0.0311 0.5157 -824.4869
vt 0.0271 0.5125 -790.6408
vt 0.1114 0.4751 -916.6494
vt 0.1152 0.4788 -950.4953
vt 0.2048 0.4716 -978.1644
vt 0.1339 0.5037 -988.8746
vt 0.7458 0.4496 -11.6855
vt 0.7687 0.4188 192.1099
vt 0.8383 0.4470 73.1601
vt 0.8321 0.4800 -165.4675
vt 0.6026 0.6132 -824.4869
vt 0.6130 0.6079 -790.6408
vt 0.5899 0.7636 -947.4785
vt 0.5832 0.7657 -971.3032
vt 0.5595 0.9109 -934.5179
vt 0.5505 0.8985 -978.0150
vt 0.5575 0.7681 -997.0677
vt 0.6798 0.3620 -11.6854
vt 0.7154 0.3475 192.1098
vt 0.7326 0.3903 95.8019
vt 0.7019 0.4143 -136.1951
vt 0.4966 0.4716 -824.4866
vt 0.5037 0.4615 -790.6406
vt 0.5618 0.5316 -916.6494
vt 0.5524 0.5401 -950.4953
vt 0.5554 0.6372 -978.0150
vt 0.5122 0.5732 -988.8746
vt 0.1875 0.4078 -652.9907
vt 0.3530 0.4466 -947.6178
vt 0.3056 0.7250 673.1814
vt 0.2804 0.7227 673.1814
vt 0.3317 0.4946 -994.3410
vt 0.4557 0.5232 -981.9758
vt 0.0061 0.4983 -652.9907
vt 0.1039 0.4637 -901.2203
vt 0.2537 0.7179 673.1814
vt 0.2380 0.7246 673.1814
vt 0.1368 0.5063 -982.3937
vt 0.2056 0.4751 -981.9758
vt 0.6415 0.5940 -652.9907
vt 0.5986 0.7612 -947.6178
vt 0.3158 0.7990 673.1814
vt 0.3161 0.7690 673.1814
vt 0.5517 0.7686 -1016.5117
vt 0.5483 0.8962 -978.4940
vt 0.5229 0.4355 -652.9907
vt 0.5780 0.5176 -901.2203
vt 0.3184 0.7416 673.1814
vt 0.3119 0.7331 673.1814
vt 0.5044 0.5796 -982.3937
vt 0.5481 0.6411 -978.4940
vt 0.8480 0.3216 1016.5113
vt 0.8440 0.3091 1016.5117
vt 0.9031 0.3311 1016.5113
vt 0.8392 0.2769 1016.5113
vt 0.8387 0.2511 1016.5113
vt 0.8520 0.2441 1016.5117
vt 0.8328 0.3020 1016.5113
vt 0.5651 0.9101 -900.6717
vt 0.7480 0.3344 398.0833
vt 0.7414 0.2738 309.1508
vt 0.7600 0.2157 398.0833
vt 0.7782 0.1845 326.0793
vt 0.0644 0.5359 -978.0150
vt 0.9073 0.4184 398.0833
vt 0.9130 0.4465 192.1099
vt 0.8463 0.4157 309.1511
vt 0.5814 0.9205 -790.6408
vt 0.5762 0.9221 -824.4869
vt 0.7905 0.3913 398.0833
vt 0.7614 0.3686 326.0793
vt 0.3552 0.4428 -918.9789
vt 0.5361 0.4226 -591.9829
vt 0.1006 0.4589 -856.7357
vt 0.1861 0.3985 -591.9829
vt 0.2230 0.7338 673.1814
vt 0.0678 0.5366 -978.4940
vt 0.6033 0.7599 -918.9789
vt 0.6064 0.9374 -591.9829
vt 0.5982 0.9365 -652.9907
vt 0.5881 0.5079 -856.7357
vt 0.6564 0.5811 -591.9829
vt 0.0005 0.4918 -591.9829
vt 0.8141 0.2403 812.0837
vt 0.8055 0.2755 778.6490
vt 0.7875 0.2288 604.9077
vt 0.7736 0.2748 544.1130
vt 0.6001 0.2611 -654.1388
vt 0.5569 0.2537 -918.9789
vt 0.6042 0.0934 -591.9829
vt 0.6423 0.1320 -409.8442
vt 0.6380 0.2659 -406.8606
vt 0.6739 0.1597 -213.1958
vt 0.8441 0.2087 812.0837
vt 0.8629 0.2311 1016.5113
vt 0.8267 0.2227 785.0135
vt 0.8254 0.1878 604.9078
vt 0.8018 0.2043 555.6854
vt 0.8096 0.1666 398.0833
vt 0.7009 0.0748 -607.6376
vt 0.6779 0.0285 -856.7357
vt 0.7785 0.0005 -591.9829
vt 0.7778 0.0528 -409.8442
vt 0.7183 0.1086 -369.9968
vt 0.7814 0.0888 -213.1960
vt 0.8309 0.3431 812.0837
vt 0.8661 0.3554 778.6490
vt 0.8114 0.3663 604.9078
vt 0.8559 0.3854 544.1134
vt 0.8268 0.5523 -654.1390
vt 0.8274 0.5961 -918.9789
vt 0.6943 0.5262 -409.8442
vt 0.8282 0.5149 -406.8607
vt 0.7216 0.4846 -213.1960
vt 0.8068 0.3113 812.0837
vt 0.8156 0.3294 785.0135
vt 0.7784 0.3223 604.9077
vt 0.7890 0.3485 555.6854
vt 0.6336 0.4702 -607.6376
vt 0.5952 0.3968 -409.8442
vt 0.6693 0.4406 -369.9968
vt 0.6406 0.3781 -213.1957
vt 0.9601 0.5335 -409.8442
vt 0.9995 0.5684 -591.9829
vt 0.9379 0.5034 -213.1960
vt 0.9232 0.4747 -11.6855
vt 0.9039 0.3607 812.0837
vt 0.9044 0.3899 604.9078
vt 0.2391 0.7595 673.1814
vt 0.2543 0.7504 673.1814
vt 0.2705 0.7761 673.1814
vt 0.2553 0.7854 673.1814
vt 0.2694 0.7413 673.1814
vt 0.2857 0.7667 673.1814
# 168 texture coords

o pagode
g pagode
usemtl wire_198225087
s 4
f 1/1/1 2/2/2 3/3/3 4/4/4 
s 8
f 5/5/5 6/6/6 7/7/7 8/8/8 
s 16
f 9/9/9 10/10/10 11/11/11 12/12/12 
s 32
f 13/13/13 14/14/14 15/15/15 16/16/16 
s 64
f 17/17/17 18/18/18 19/19/19 20/20/20 
s 8
f 21/21/21 22/22/22 23/23/23 24/24/24 
f 25/25/25 26/26/26 27/27/27 28/28/28 
f 17/17/17 29/29/29 30/30/30 8/8/8 
s 16
f 31/31/31 32/32/32 33/33/33 34/34/34 
f 35/35/35 36/36/36 37/37/37 38/38/38 
f 5/5/5 39/39/39 40/40/40 12/12/12 
s 32
f 41/41/41 42/42/42 43/43/43 44/44/44 
f 45/45/45 46/46/46 47/47/47 48/48/48 
f 9/49/9 49/50/49 50/51/50 16/16/16 
s 64
f 51/52/51 52/53/52 53/54/53 54/55/54 
f 55/56/55 56/57/56 57/58/57 58/59/58 
f 13/13/13 59/60/59 60/61/60 20/20/20 
s 8
f 6/6/6 25/25/25 28/28/28 7/7/7 
s 16
f 10/10/10 35/35/35 38/38/38 11/11/11 
s 32
f 14/14/14 45/45/45 48/48/48 15/15/15 
s 64
f 18/18/18 55/56/55 58/59/58 19/19/19 
s 8
f 26/26/26 61/62/61 62/63/62 27/27/27 
f 63/64/63 64/65/64 65/66/65 66/67/66 
s 16
f 36/36/36 67/68/67 68/69/68 37/37/37 
f 69/70/69 70/71/70 71/72/71 72/73/72 
s 32
f 46/46/46 73/74/73 74/75/74 47/47/47 
f 75/76/75 76/77/76 77/78/77 78/79/78 
s 64
f 56/57/56 79/80/79 80/81/80 57/58/57 
f 81/82/81 82/83/82 83/84/83 84/85/84 
s 4
f 3/3/3 85/86/85 4/87/4 
f 2/2/2 86/88/86 3/3/3 
f 1/89/1 87/90/87 2/91/2 
f 4/87/4 88/92/88 1/89/1 
s 8
f 7/7/7 18/18/18 17/17/17 8/8/8 
s 16
f 11/11/11 6/6/6 5/5/5 12/12/12 
s 32
f 15/15/15 10/93/10 9/49/9 16/16/16 
s 64
f 19/19/19 14/14/14 13/13/13 20/20/20 
s 8
f 89/94/89 52/53/52 23/23/23 90/95/90 
f 27/27/27 56/57/56 55/56/55 28/28/28 
f 39/39/39 5/5/5 8/8/8 30/30/30 
s 16
f 91/96/91 22/22/22 33/33/33 92/97/92 
f 37/37/37 26/26/26 25/25/25 38/38/38 
f 49/98/49 9/9/9 12/12/12 40/40/40 
s 32
f 93/99/93 32/100/32 43/43/43 94/101/94 
f 47/47/47 36/102/36 35/103/35 48/48/48 
f 59/60/59 13/13/13 16/16/16 50/51/50 
s 64
f 95/104/95 42/42/42 53/54/53 96/105/96 
f 57/58/57 46/46/46 45/45/45 58/59/58 
f 29/29/29 17/17/17 20/20/20 60/61/60 
s 8
f 28/28/28 55/56/55 18/18/18 7/7/7 
s 16
f 38/38/38 25/25/25 6/6/6 11/11/11 
s 32
f 48/48/48 35/103/35 10/93/10 15/15/15 
s 64
f 58/59/58 45/45/45 14/14/14 19/19/19 
s 8
f 97/106/97 98/107/98 79/80/79 62/63/62 
f 64/65/64 69/70/69 72/73/72 65/66/65 
s 16
f 99/108/99 100/109/100 61/62/61 68/69/68 
f 70/71/70 75/110/75 78/111/78 71/72/71 
s 32
f 101/112/101 102/113/102 67/114/67 74/75/74 
f 76/77/76 81/82/81 84/85/84 77/78/77 
s 64
f 103/115/103 104/116/104 73/74/73 80/81/80 
f 82/83/82 63/64/63 66/67/66 83/84/83 
s 8
f 61/62/61 100/109/100 97/106/97 62/63/62 
s 16
f 67/68/67 102/117/102 99/108/99 68/69/68 
s 32
f 73/74/73 104/116/104 101/112/101 74/75/74 
s 64
f 79/80/79 98/107/98 103/115/103 80/81/80 
s 8
f 79/80/79 56/57/56 27/27/27 62/63/62 
s 16
f 61/62/61 26/26/26 37/37/37 68/69/68 
s 32
f 67/114/67 36/102/36 47/47/47 74/75/74 
s 64
f 73/74/73 46/46/46 57/58/57 80/81/80 
s 8
f 105/118/105 87/90/87 1/89/1 106/119/106 
f 107/120/107 105/118/105 106/119/106 108/121/108 
f 91/96/91 107/120/107 108/121/108 90/95/90 
f 22/22/22 91/96/91 90/95/90 23/23/23 
f 109/122/109 97/123/97 100/124/100 110/125/110 
f 111/126/111 109/122/109 110/125/110 112/127/112 
f 24/24/24 111/126/111 112/127/112 21/21/21 
s 16
f 113/128/113 86/129/86 2/91/2 114/130/114 
f 115/131/115 113/128/113 114/130/114 116/132/116 
f 93/133/93 115/131/115 116/132/116 92/97/92 
f 32/32/32 93/133/93 92/97/92 33/33/33 
f 117/134/117 99/135/99 102/136/102 118/137/118 
f 119/138/119 117/134/117 118/137/118 120/139/120 
f 34/34/34 119/138/119 120/139/120 31/31/31 
s 32
f 121/140/121 85/86/85 3/3/3 122/141/122 
f 123/142/123 121/140/121 122/141/122 124/143/124 
f 95/104/95 123/142/123 124/143/124 94/101/94 
f 42/42/42 95/104/95 94/101/94 43/43/43 
f 125/144/125 101/145/101 104/116/104 126/146/126 
f 127/147/127 125/144/125 126/146/126 128/148/128 
f 44/44/44 127/147/127 128/148/128 41/41/41 
s 64
f 129/149/129 88/92/88 4/87/4 130/150/130 
f 131/151/131 129/149/129 130/150/130 132/152/132 
f 89/94/89 131/151/131 132/152/132 96/105/96 
f 52/53/52 89/94/89 96/105/96 53/54/53 
f 133/153/133 103/115/103 98/107/98 134/154/134 
f 135/155/135 133/153/133 134/154/134 136/156/136 
f 54/55/54 135/155/135 136/156/136 51/52/51 
s 8
f 134/154/134 98/107/98 97/123/97 109/122/109 
f 136/156/136 134/154/134 109/122/109 111/126/111 
f 51/52/51 136/156/136 111/126/111 24/24/24 
f 52/53/52 51/52/51 24/24/24 23/23/23 
f 106/119/106 1/89/1 88/92/88 129/149/129 
f 108/121/108 106/119/106 129/149/129 131/151/131 
f 90/95/90 108/121/108 131/151/131 89/94/89 
s 16
f 110/125/110 100/124/100 99/135/99 117/134/117 
f 112/127/112 110/125/110 117/134/117 119/138/119 
f 21/21/21 112/127/112 119/138/119 34/34/34 
f 22/22/22 21/21/21 34/34/34 33/33/33 
f 114/130/114 2/91/2 87/90/87 105/118/105 
f 116/132/116 114/130/114 105/118/105 107/120/107 
f 92/97/92 116/132/116 107/120/107 91/96/91 
s 32
f 118/157/118 102/158/102 101/145/101 125/144/125 
f 120/159/120 118/157/118 125/144/125 127/147/127 
f 31/160/31 120/159/120 127/147/127 44/44/44 
f 32/100/32 31/160/31 44/44/44 43/43/43 
f 122/141/122 3/3/3 86/88/86 113/161/113 
f 124/143/124 122/141/122 113/161/113 115/162/115 
f 94/101/94 124/143/124 115/162/115 93/99/93 
s 64
f 126/146/126 104/116/104 103/115/103 133/153/133 
f 128/148/128 126/146/126 133/153/133 135/155/135 
f 41/41/41 128/148/128 135/155/135 54/55/54 
f 42/42/42 41/41/41 54/55/54 53/54/53 
f 130/150/130 4/87/4 85/86/85 121/140/121 
f 132/152/132 130/150/130 121/140/121 123/142/123 
f 96/105/96 132/152/132 123/142/123 95/104/95 
s off
f 76/163/76 75/110/75 70/71/70 137/164/137 
f 76/163/76 137/164/137 82/165/82 81/166/81 
s 1
f 137/164/137 70/71/70 69/70/69 64/167/64 
f 82/165/82 137/164/137 64/167/64 63/168/63 
f 84/85/84 83/84/83 60/61/60 59/60/59 
f 83/84/83 66/67/66 29/29/29 60/61/60 
s 2
f 66/67/66 65/66/65 30/30/30 29/29/29 
f 65/66/65 72/73/72 39/39/39 30/30/30 
s 1
f 72/73/72 71/72/71 40/40/40 39/39/39 
f 71/72/71 78/111/78 49/98/49 40/40/40 
s 2
f 78/79/78 77/78/77 50/51/50 49/50/49 
f 77/78/77 84/85/84 59/60/59 50/51/50 
# 133 polygons - 4 triangles

